<svg width="25" height="24" viewBox="0 0 20 19" fill="none" xmlns="http://www.w3.org/2000/svg">
<path d="M7.65608 5C7.80608 3.8375 8.05608 2.80625 8.37358 1.97875C8.63983 1.28625 8.94233 0.7675 9.24608 0.43375C9.54983 0.0999998 9.80483 0 9.99983 0C10.1948 0 10.4498 0.0999998 10.7536 0.43375C11.0573 0.7675 11.3598 1.28625 11.6261 1.97875C11.9448 2.80625 12.1948 3.8375 12.3436 5H7.65608ZM7.20608 1.53C7.37483 1.09375 7.56483 0.69 7.77858 0.33375C6.66276 0.680943 5.64323 1.28345 4.8009 2.09344C3.95858 2.90343 3.31665 3.89862 2.92608 5H6.39608C6.55358 3.6875 6.83358 2.50125 7.20733 1.53H7.20608ZM12.7936 1.53C12.6374 1.11558 12.4459 0.715352 12.2211 0.33375C13.3369 0.680943 14.3564 1.28345 15.1988 2.09344C16.0411 2.90343 16.683 3.89862 17.0736 5H13.6036C13.4461 3.6875 13.1661 2.50125 12.7923 1.53H12.7936ZM13.7123 6.25H17.3948C17.5339 7.07753 17.5339 7.92246 17.3948 8.75H13.7123C13.7604 7.91736 13.7604 7.08264 13.7123 6.25ZM13.6023 10H17.0723C16.6818 11.1014 16.0398 12.0966 15.1975 12.9066C14.3552 13.7165 13.3356 14.3191 12.2198 14.6662C12.4323 14.31 12.6236 13.9062 12.7911 13.47C13.1661 12.4987 13.4448 11.3125 13.6036 10H13.6023ZM10.7523 14.5662C10.4486 14.9 10.1936 15 9.99858 15C9.80358 15 9.54858 14.9 9.24483 14.5662C8.94108 14.2325 8.63858 13.7137 8.37233 13.0212C8.05358 12.1937 7.80358 11.1637 7.65483 10H12.3423C12.1923 11.1625 11.9423 12.1937 11.6248 13.0212C11.3586 13.7137 11.0561 14.2325 10.7523 14.5662ZM2.92608 10C3.31665 11.1014 3.95858 12.0966 4.8009 12.9066C5.64323 13.7165 6.66276 14.3191 7.77858 14.6662C7.55424 14.2846 7.36312 13.8844 7.20733 13.47C6.83233 12.4987 6.55358 11.3125 6.39483 10H2.92733H2.92608ZM6.28608 8.75H2.60358C2.46465 7.92246 2.46465 7.07754 2.60358 6.25H6.28608C6.23814 7.08264 6.23814 7.91735 6.28608 8.75ZM7.53733 6.25C7.48634 7.08255 7.48634 7.91745 7.53733 8.75H12.4623C12.5133 7.91744 12.5133 7.08255 12.4623 6.25H7.53733ZM1.87483 12.5H2.81858C3.12858 12.945 3.47983 13.36 3.86483 13.74C3.82688 13.7469 3.78839 13.7502 3.74983 13.75H2.36233L1.42483 17.5H18.5748L17.6373 13.75H16.2498C16.2113 13.7502 16.1728 13.7469 16.1348 13.74C16.521 13.3598 16.8713 12.9447 17.1811 12.5H18.1248C18.2642 12.5 18.3996 12.5467 18.5095 12.6325C18.6193 12.7184 18.6973 12.8385 18.7311 12.9737L19.9811 17.9737C20.0041 18.0659 20.0057 18.162 19.986 18.2549C19.9663 18.3477 19.9257 18.4349 19.8672 18.5097C19.8088 18.5845 19.7341 18.645 19.6488 18.6867C19.5634 18.7283 19.4698 18.75 19.3748 18.75H0.624827C0.529891 18.75 0.436209 18.7283 0.35089 18.6867C0.265572 18.645 0.19086 18.5845 0.132425 18.5097C0.0739895 18.4349 0.0333672 18.3477 0.0136409 18.2549C-0.00608537 18.162 -0.00439715 18.0659 0.0185774 17.9737L1.26858 12.9737C1.30232 12.8385 1.38031 12.7184 1.49016 12.6325C1.60001 12.5467 1.73541 12.5 1.87483 12.5Z" fill="black"/>
</svg>
