<svg width="25" height="16" viewBox="0 0 23 16" fill="none" xmlns="http://www.w3.org/2000/svg">
<path d="M18.7917 2.08333H10.4584V9.375H2.12508V0H0.041748V15.625H2.12508V12.5H20.8751V15.625H22.9584V6.25C22.9584 5.14493 22.5194 4.08512 21.738 3.30372C20.9566 2.52232 19.8968 2.08333 18.7917 2.08333ZM6.29175 8.33333C7.12055 8.33333 7.91541 8.00409 8.50146 7.41804C9.08751 6.83199 9.41675 6.03713 9.41675 5.20833C9.41675 4.37953 9.08751 3.58468 8.50146 2.99862C7.91541 2.41257 7.12055 2.08333 6.29175 2.08333C5.46295 2.08333 4.66809 2.41257 4.08204 2.99862C3.49599 3.58468 3.16675 4.37953 3.16675 5.20833C3.16675 6.03713 3.49599 6.83199 4.08204 7.41804C4.66809 8.00409 5.46295 8.33333 6.29175 8.33333Z" fill="black"/>
</svg>
